<svg version="1.2" xmlns="http://www.w3.org/2000/svg" viewBox="0 0 456 456" width="40" height="40">
    <title>ic_layered_logo</title>
    <style>
        .s0 { fill: #e2bab5 }
        .s1 { fill: #b6cce0 }
        .s2 { fill: #b09fb7 }
        .s3 { fill: #8b7496 }
        .s4 { fill: #e59683 }
    </style>
    <path fill-rule="evenodd" class="s0" d="m168.5 227.8l-42.1 42.1-42.2-42.1 42.2-42.1z"/>
    <path fill-rule="evenodd" class="s0" d="m371.3 227.8l-42.1 42.1-42.1-42.1 42.1-42.1z"/>
    <path fill-rule="evenodd" class="s1" d="m371.3 312l-143.5 143.6-143.6-143.6 42.2-42.1 101.4 101.4 101.4-101.4z"/>
    <path fill-rule="evenodd" class="s2" d="m329.2 269.9l-101.4 101.4-101.4-101.4 42.1-42.1 59.3 59.3 59.3-59.3z"/>
    <path fill-rule="evenodd" class="s3" d="m168.5 227.8l59.3-59.3 59.3 59.3-59.3 59.3z"/>
    <path fill-rule="evenodd" class="s4" d="m329.2 185.7l-42.1 42.1-59.3-59.3-59.3 59.3-42.1-42.1 101.4-101.5z"/>
    <path fill-rule="evenodd" class="s0" d="m227.8 0l143.5 143.6-42.1 42.1-101.4-101.5-101.4 101.5-42.2-42.1z"/>
</svg>